<svg width="281" height="124" viewBox="0 0 281 124" fill="none" xmlns="http://www.w3.org/2000/svg">
<path d="M1.5 65.8512C14.9968 65.4216 44.5738 63.436 56.7055 58.3652C65.5918 54.6509 70.7754 47.5767 78.5868 37.4274C84.923 29.1948 92.1351 22.8761 96.4928 17.4461C102.642 9.78403 112.135 2.87665 122.009 1.82797C136.818 0.255074 145.347 4.56292 151.387 9.93286C159.787 17.4005 163.324 29.3454 167.027 40.7938C171.121 53.4496 166.453 79.7007 159.16 92.6116C151.215 106.676 112.902 103.903 96.5805 104.141C94.6949 104.168 94.2898 101.917 94.5537 100.411C94.8175 98.905 95.9188 97.4206 97.4038 96.2848C105.805 89.8588 121.162 94.009 128.117 97.1431C141.813 103.315 142.875 114.949 145.737 116.988C149.199 119.454 153.993 117.557 157.047 116.064C163.334 112.991 162.42 102.641 161.679 97.2882C161.298 94.5352 159.05 104.475 159.136 109.561C159.221 114.565 162.183 118.39 164.956 120.799C167.523 123.029 171.816 121.927 175.518 120.344C184.261 116.603 193.496 101.844 200.104 94.2016C206.906 86.334 211.361 81.7734 219.429 76.9141C223.041 75.0381 227.754 73.632 237.823 72.5674C244.881 72.1442 255.893 71.9587 267.239 71.7675" stroke="#984EFF" stroke-width="3" stroke-linecap="round"/>
<circle cx="273" cy="71.9999" r="7.5" fill="#984EFF"/>
</svg>
