<svg width="277" height="119" viewBox="0 0 277 119" fill="none" xmlns="http://www.w3.org/2000/svg">
<path d="M8 27.5318C13.6781 25.8898 28.8772 22.8588 44.4115 20.4984C68.6552 16.8147 78.2917 16.7142 87.2348 17.2744C98.9682 18.0094 102.799 35.9696 107.8 41.3449C113.12 47.063 116.92 54.2409 119.871 62.3842C124.139 74.1632 125.536 82.9935 127.503 91.4338C129.866 101.578 131.901 108.915 138.561 115.283C141.305 117.906 145.433 117.688 149.054 117.19C150.788 116.952 152.093 115.699 153.085 114.294C158.289 106.915 154.473 94.2923 151.012 86.6767C148.818 81.8522 147.33 72.6964 148.391 61.4009C149.856 45.8227 163.193 40.2221 169.945 28.4041C171.688 25.3536 174.149 23.5816 176.22 22.7541C179.974 21.2541 184.836 24.5857 189.168 28.1916C192.355 30.844 192.278 35.2941 191.686 39.3584C191.165 42.9342 188.723 45.8302 185.57 47.9159C182.228 50.1267 177.666 48.2275 174.021 46.9302C169.816 45.4337 166.792 41.6231 164.419 38.3261C162.179 35.2144 162.22 31.003 162.702 27.2029C162.939 25.337 164.157 23.7984 165.434 22.4831C172.136 15.5787 193.587 21.2673 229.718 15.0476C236.799 13.8287 237.968 11.6051 238.668 9.89625C239.369 8.18737 239.369 6.20352 238.78 4.58507C238.191 2.96663 237.013 1.77372 235.622 1.55251C232.647 1.07936 229.477 3.91167 226.901 6.28646C224.372 8.61829 225.293 13.0413 226.17 16.4113C229.151 27.8707 252.425 26.3205 256.243 26.022C259.091 24.3339 262.038 22.7072 265.754 22.0054C267.722 21.7011 269.858 21.5023 275 18.8875" stroke="#984EFF" stroke-width="3" stroke-linecap="round"/>
<circle cx="7.5" cy="27.0002" r="7.5" fill="#984EFF"/>
</svg>
